#!OML:ASF Y:\EmotionMaleHayes\Project 1\Capture day 1\Session 1\Male1.ASF
:FULLY-SPECIFIED
:DEGREES
244
root -28.8528 17.1264 -0.347766 51.9955 86.8827 50.0748
lowerback 6.28521 1.38772 -5.50848
upperback 1.94011 1.53883 -1.04022
thorax -1.63177 0.795619 1.89761
lowerneck -25.4114 2.24495 1.95704
upperneck 25.1521 2.58668 -0.104169
head 12.6134 1.37587 0.112247
rclavicle -8.05078e-015 1.15295e-014
rhumerus -38.602 8.46428 -90.6902
rradius 39.4583
rwrist -3.27509
rhand -10.7903 -30.6453
rfingers 7.12502
rthumb 15.2225 -60.0653
lclavicle -8.05078e-015 1.15295e-014
lhumerus -24.5715 -25.1224 89.4436
lradius 35.9747
lwrist -0.607642
lhand -22.309 -28.1423
lfingers 7.12502
lthumb 4.11036 1.79783
rfemur 7.61087 -6.00975 12.0868
rtibia 7.09675
rfoot -21.0755 -8.70961
rtoes 10.0573
lfemur 9.76472 2.05647 -13.0356
ltibia 2.62082
lfoot -16.7527 13.8941
ltoes -18.6541
245
root -28.8449 17.1235 -0.326455 49.7834 87.2532 47.7902
lowerback 6.36182 1.3564 -5.39686
upperback 1.95342 1.50046 -0.888426
thorax -1.65936 0.775922 1.99352
lowerneck -25.4559 2.21568 1.81379
upperneck 25.0477 2.58416 -0.0636866
head 12.5772 1.36465 0.150378
rclavicle 5.96354e-015 -2.14687e-014
rhumerus -38.8775 8.52793 -90.6358
rradius 39.5386
rwrist -3.02297
rhand -10.61 -29.7357
rfingers 7.12502
rthumb 15.3962 -59.1424
lclavicle 5.96354e-015 -2.14687e-014
lhumerus -23.5114 -25.5503 88.8416
lradius 36.5247
lwrist 0.682543
lhand -22.8275 -28.0294
lfingers 7.12502
lthumb 3.60971 1.91975
rfemur 7.36486 -5.71634 12.7808
rtibia 7.52143
rfoot -21.7662 -8.98364
rtoes 11.7597
lfemur 9.64211 2.33204 -12.3522
ltibia 2.74531
lfoot -16.7044 13.4292
ltoes -19.3648
246
root -28.833 17.1235 -0.304296 48.8232 87.7025 46.8525
lowerback 6.51131 1.30048 -5.22116
upperback 2.00565 1.43158 -0.775543
thorax -1.68244 0.741026 2.01499
lowerneck -25.5789 2.18383 1.74863
upperneck 24.9786 2.54754 -0.0321109
head 12.5715 1.3445 0.16715
rclavicle 9.29318e-015 -1.11319e-014
rhumerus -39.18 8.28932 -90.5353
rradius 39.6624
rwrist -2.75855
rhand -10.3854 -29.0689
rfingers 7.12502
rthumb 15.6125 -58.4589
lclavicle 9.29318e-015 -1.11319e-014
lhumerus -22.3819 -25.9377 88.1618
lradius 37.0546
lwrist 1.93016
lhand -23.2421 -27.7312
lfingers 7.12502
lthumb 3.20926 2.22436
rfemur 7.34565 -5.25988 13.5493
rtibia 7.79047
rfoot -22.4 -9.54969
rtoes 13.3015
lfemur 9.62306 2.36693 -11.7359
ltibia 2.83061
lfoot -16.9107 13.0376
ltoes -19.3337
247
root -28.8239 17.1246 -0.277578 57.6546 87.9185 55.7329
lowerback 6.79401 1.21765 -5.49517
upperback 2.04443 1.28964 -0.729167
thorax -1.79528 0.673608 2.22311
lowerneck -25.7791 2.14938 1.58911
upperneck 24.9853 2.53151 0.0467358
head 12.609 1.3309 0.222964
rclavicle 2.47984e-014 -1.59028e-014
rhumerus -39.4327 8.03035 -90.3797
rradius 39.7376
rwrist -2.61717
rhand -10.4153 -28.9127
rfingers 7.12502
rthumb 15.5837 -58.3049
lclavicle 2.47984e-014 -1.59028e-014
lhumerus -21.304 -26.3176 87.5176
lradius 37.6769
lwrist 3.18714
lhand -23.7958 -27.3409
lfingers 7.12502
lthumb 2.67459 2.62207
rfemur 7.37438 -5.25611 13.7161
rtibia 8.09279
rfoot -22.8997 -10.1106
rtoes 11.8329
lfemur 9.59972 2.11647 -11.7055
ltibia 2.87043
lfoot -17.1971 12.881
ltoes -19.0743
248
root -28.8172 17.1243 -0.254567 69.3362 87.818 67.3062
lowerback 6.97386 1.17773 -5.95653
upperback 2.04805 1.19459 -0.770145
thorax -1.89101 0.630565 2.44405
lowerneck -26.1607 2.13206 1.608
upperneck 25.0827 2.53325 -0.0996254
head 12.7247 1.30946 0.168557
rclavicle 4.67144e-015 -2.46493e-014
rhumerus -39.5843 7.66523 -90.1842
rradius 39.6573
rwrist -2.57315
rhand -10.9166 -28.8073
rfingers 7.12502
rthumb 15.1008 -58.2365
lclavicle 4.67144e-015 -2.46493e-014
lhumerus -20.2361 -26.7202 86.8652
lradius 38.4419
lwrist 4.24065
lhand -24.1365 -27.0412
lfingers 7.12502
lthumb 2.34555 2.92567
rfemur 7.08891 -5.90639 13.3686
rtibia 8.68103
rfoot -23.3004 -10.2758
rtoes 9.59926
lfemur 9.4604 1.80877 -12.0612
ltibia 2.79714
lfoot -17.3354 12.89
ltoes -19.2269
249
root -28.8058 17.1225 -0.235281 74.3166 87.9031 72.0368
lowerback 7.0066 1.16658 -5.99629
upperback 1.97677 1.17032 -0.766756
thorax -1.98186 0.621772 2.47065
lowerneck -26.3784 2.02448 1.71048
upperneck 25.2086 2.44906 -0.468481
head 12.8244 1.22845 -0.00340315
rclavicle 3.72721e-015 0
rhumerus -39.7347 7.50926 -90.0983
rradius 39.4167
rwrist -2.87424
rhand -11.7251 -28.7056
rfingers 7.12502
rthumb 14.3219 -58.1916
lclavicle 3.72721e-015 0
lhumerus -19.2755 -27.0322 86.2154
lradius 39.2375
lwrist 4.83997
lhand -24.5591 -26.8656
lfingers 7.12502
lthumb 1.93742 3.10538
rfemur 6.52343 -6.34071 13.4764
rtibia 9.45746
rfoot -23.954 -10.3676
rtoes 9.56141
lfemur 9.38888 1.29634 -12.1303
ltibia 2.38363
lfoot -17.3396 13.272
ltoes -20.2765
250
root -28.792 17.1211 -0.211448 79.2238 88.0599 76.654
lowerback 6.94553 1.12642 -6.05613
upperback 1.91706 1.11443 -0.654186
thorax -2.00818 0.594723 2.62616
lowerneck -26.502 2.01459 1.46272
upperneck 25.0212 2.50902 -0.414401
head 12.7686 1.23487 0.0690137
rclavicle 5.06901e-015 3.57812e-015
rhumerus -39.7607 7.81897 -90.033
rradius 38.9796
rwrist -3.62825
rhand -12.5987 -28.8284
rfingers 7.12502
rthumb 13.48 -58.3722
lclavicle 5.06901e-015 3.57812e-015
lhumerus -18.2764 -27.0821 85.6528
lradius 39.8889
lwrist 4.9904
lhand -25.2443 -26.5234
lfingers 7.12502
lthumb 1.27561 3.45253
rfemur 5.83593 -6.45591 13.8192
rtibia 10.4355
rfoot -25.0163 -10.4746
rtoes 10.8852
lfemur 9.32884 0.637614 -12.0873
ltibia 1.87404
lfoot -17.3192 13.8512
ltoes -21.6521
251
root -28.7755 17.1223 -0.185299 85.3123 88.1522 82.4718
lowerback 6.9082 1.09097 -6.12792
upperback 1.85774 1.06208 -0.586989
thorax -2.04663 0.570245 2.7407
lowerneck -26.6468 2.00367 1.2268
upperneck 24.8504 2.55667 -0.338717
head 12.7232 1.24052 0.145726
rclavicle 1.07344e-014 3.57812e-015
rhumerus -39.8589 7.80757 -89.8872
rradius 38.5708
rwrist -4.22055
rhand -13.0385 -29.4108
rfingers 7.12502
rthumb 13.056 -58.9821
lclavicle 1.07344e-014 3.57812e-015
lhumerus -17.3221 -27.1382 85.0673
lradius 40.5635
lwrist 5.10073
lhand -25.8087 -26.0826
lfingers 7.12502
lthumb 0.730476 3.89589
rfemur 5.14173 -6.84465 14.0539
rtibia 11.5715
rfoot -25.8266 -10.6213
rtoes 11.3067
lfemur 9.11359 0.507664 -11.9195
ltibia 1.74415
lfoot -17.3726 13.9315
ltoes -23.1444
252
root -28.7541 17.1243 -0.162677 87.7896 88.4536 84.6587
lowerback 6.77976 1.07371 -5.86724
upperback 1.81992 1.06374 -0.506341
thorax -2.01206 0.568788 2.67961
lowerneck -26.9117 2.01285 1.25259
upperneck 24.7964 2.59912 -0.503372
head 12.7561 1.23468 0.0874876
rclavicle -4.96962e-016 -1.35174e-014
rhumerus -39.938 7.32976 -89.6098
rradius 38.227
rwrist -4.29072
rhand -13.2506 -29.8185
rfingers 7.12502
rthumb 12.8517 -59.4028
lclavicle -4.96962e-016 -1.35174e-014
lhumerus -16.3981 -27.2538 84.3413
lradius 41.3333
lwrist 5.44525
lhand -25.8479 -26.0077
lfingers 7.12502
lthumb 0.692684 3.97093
rfemur 4.38033 -7.27991 14.5823
rtibia 12.6978
rfoot -26.048 -11.21
rtoes 10.0975
lfemur 8.86557 0.728553 -11.3649
ltibia 1.75285
lfoot -17.6027 13.625
ltoes -23.5759
253
root -28.7341 17.1253 -0.136441 87.5794 88.7744 84.1227
lowerback 6.55409 1.06319 -5.67943
upperback 1.83101 1.07895 -0.345006
thorax -1.8764 0.570764 2.74355
lowerneck -27.1963 2.02314 1.14933
upperneck 24.6657 2.67747 -0.614203
head 12.7592 1.23897 0.0774827
rclavicle 2.03754e-015 3.97569e-016
rhumerus -39.8336 6.87209 -89.1679
rradius 37.7676
rwrist -4.23072
rhand -13.496 -29.7908
rfingers 7.12502
rthumb 12.615 -59.3899
lclavicle 2.03754e-015 3.97569e-016
lhumerus -15.4356 -27.2911 83.6525
lradius 42.0879
lwrist 5.7108
lhand -25.5895 -26.0018
lfingers 7.12502
lthumb 0.942195 3.97587
rfemur 3.5016 -7.57069 15.2265
rtibia 13.9065
rfoot -26.2244 -11.9889
rtoes 9.41637
lfemur 8.7227 0.698842 -10.8446
ltibia 1.53498
lfoot -17.946 13.3255
ltoes -22.6275
254
root -28.7366 17.1206 -0.0992616 111.125 88.5388 107.201
lowerback 6.8449 0.91178 -5.9449
upperback 1.53278 0.824204 -0.342869
thorax -2.32818 0.46136 2.91082
lowerneck -27.3156 2.03177 1.01122
upperneck 24.5428 2.73567 -0.600386
head 12.7306 1.25119 0.116391
rclavicle 4.07509e-015 -1.39149e-014
rhumerus -40.0065 6.36968 -88.8434
rradius 37.1608
rwrist -4.17657
rhand -13.5745 -29.9697
rfingers 7.12502
rthumb 12.5393 -59.5734
lclavicle 4.07509e-015 -1.39149e-014
lhumerus -14.8324 -29.9541 82.7677
lradius 43.2864
lwrist 8.31794
lhand -26.1393 -25.2917
lfingers 7.12502
lthumb 0.411208 4.68766
rfemur 2.47443 -8.27683 15.3047
rtibia 15.2471
rfoot -26.767 -12.8316
rtoes 9.9031
lfemur 8.068 0.534918 -10.8594
ltibia 1.59773
lfoot -18.0807 12.652
ltoes -21.9637
255
root -28.6997 17.124 -0.0804205 98.6824 88.1346 94.5955
lowerback 6.76986 1.00298 -6.38589
upperback 1.51711 0.917856 -0.465733
thorax -2.31548 0.510962 3.02293
lowerneck -27.6146 2.15796 0.960828
upperneck 24.3674 2.94604 -0.68296
head 12.7195 1.32281 0.133094
rclavicle -4.91992e-015 2.38542e-014
rhumerus -39.8453 5.83326 -88.3457
rradius 36.5287
rwrist -4.97078
rhand -13.1882 -30.5009
rfingers 7.12502
rthumb 12.9118 -60.0815
lclavicle -4.91992e-015 2.38542e-014
lhumerus -14.1881 -29.644 82.1875
lradius 44.1213
lwrist 8.47524
lhand -26.1176 -25.2818
lfingers 7.12502
lthumb 0.43217 4.69751
rfemur 1.78596 -8.81832 14.8135
rtibia 16.6889
rfoot -27.399 -13.1207
rtoes 10.5728
lfemur 8.3143 0.633037 -11.4158
ltibia 1.21974
lfoot -18.2541 12.5956
ltoes -21.8588
256
root -28.6844 17.1158 -0.0508732 104.021 87.7951 99.4976
lowerback 6.65803 0.904309 -6.63904
upperback 1.44802 0.773195 -0.528284
thorax -2.3124 0.441717 3.11361
lowerneck -27.9004 2.19706 0.890837
upperneck 24.2113 3.08076 -0.886855
head 12.7153 1.34216 0.0922831
rclavicle 9.64106e-015 9.54166e-015
rhumerus -39.6499 5.61282 -87.9867
rradius 35.9456
rwrist -5.36265
rhand -13.0774 -31.045
rfingers 7.12502
rthumb 13.0185 -60.6188
lclavicle 9.64106e-015 9.54166e-015
lhumerus -13.7753 -27.9832 81.8527
lradius 44.8382
lwrist 6.71716
lhand -26.2286 -25.7803
lfingers 7.12502
lthumb 0.324993 4.19922
rfemur 0.767288 -9.35799 14.7264
rtibia 18.1096
rfoot -28.0619 -14.0888
rtoes 12.1144
lfemur 7.94355 0.30875 -11.717
ltibia 1.07886
lfoot -18.3609 12.6399
ltoes -22.1141
257
root -28.6529 17.1152 -0.0274249 100.211 87.4147 95.5875
lowerback 6.6908 0.957129 -6.88746
upperback 1.55295 0.829661 -0.662913
thorax -2.22826 0.467963 3.10834
lowerneck -28.3971 2.30622 0.772038
upperneck 23.9497 3.26885 -0.903678
head 12.7039 1.40503 0.14298
rclavicle 4.22417e-015 -2.18663e-015
rhumerus -39.4669 5.39785 -87.6537
rradius 35.5408
rwrist -5.57639
rhand -12.6915 -31.8546
rfingers 7.12502
rthumb 13.3906 -61.4043
lclavicle 4.22417e-015 -2.18663e-015
lhumerus -12.6103 -29.204 80.8986
lradius 45.456
lwrist 8.18238
lhand -26.0594 -25.7511
lfingers 7.12502
lthumb 0.488345 4.2281
rfemur 0.211059 -9.94388 14.3861
rtibia 19.4342
rfoot -28.4765 -14.8007
rtoes 13.2521
lfemur 8.37005 -0.477544 -12.3555
ltibia 0.283351
lfoot -18.5107 13.4217
ltoes -22.3571
